<svg xmlns="http://www.w3.org/2000/svg" xmlns:svg="http://www.w3.org/2000/svg" xmlns:xlink="http://www.w3.org/1999/xlink" version="1.0" height="680pt" width="820.0000000000003pt" viewBox="205.00000000000009 237 828.0000000000003 686" ><defs><style type="text/css">
            @font-face {
                font-family: 'noto_regular';
                src: url('https://app.creately.com/diagram/assets/fonts/noto/noto-regular.woff') format('woff'),
                     url('https://app.creately.com/diagram/assets/fonts/noto/noto-regular.woff2') format('woff2');
                font-weight: normal;
                font-style: normal;
            }
        p {
            margin: 0;
        }
        </style></defs><defs><style>
            span{ display: inline-block; }
        </style></defs><g id="KIpphu6Ejub"><g transform="translate(700 570)"><rect x="0" y="0" width="140" height="290.00000000000006" fill="white" stroke="#7e7e7e" stroke-width="2" stroke-linecap="round" stroke-linejoin="round" stroke-dasharray="0 0"/></g><g transform="translate(752.15, 589) rotate(0, 17.85, 126)" width="35.7" height="252"><text text-decoration="none" x="17.85" fill="#656565" font-size="10pt" font-family="noto_regular"  y="14"></text><text text-decoration="none" x="17.85" fill="#656565" font-size="10pt" font-family="noto_regular"  y="32"></text><text text-decoration="none" x="17.85" fill="#656565" font-size="10pt" font-family="noto_regular"  y="50"></text><text text-decoration="none" x="17.85" fill="#656565" font-size="10pt" font-family="noto_regular"  y="68"></text><text text-decoration="none" x="17.85" fill="#656565" font-size="10pt" font-family="noto_regular"  y="86"></text><text text-decoration="none" x="17.85" fill="#656565" font-size="10pt" font-family="noto_regular"  y="104"></text><text text-decoration="none" x="17.85" fill="#656565" font-size="10pt" font-family="noto_regular"  y="122"></text><text text-decoration="none" x="17.85" fill="#656565" font-size="10pt" font-family="noto_regular"  y="140"></text><text text-decoration="none" x="17.85" fill="#656565" font-size="10pt" font-family="noto_regular"  y="158"></text><text text-decoration="none" x="17.85" fill="#656565" font-size="10pt" font-family="noto_regular"  y="176"></text><text text-decoration="none" x="17.85" fill="#656565" font-size="10pt" font-family="noto_regular"  y="194"></text><text text-decoration="none" x="17.85" fill="#656565" font-size="10pt" font-family="noto_regular"  y="212"></text><text text-decoration="none" x="17.85" fill="#656565" font-size="10pt" font-family="noto_regular"  y="230"></text><text text-decoration="none" x="0.0003906250000014211" fill="#656565" font-size="10pt" font-family="noto_regular"  y="248">cvmfs</text><text text-decoration="none" x="35.699609375" fill="#4b4b4b" font-size="10pt" font-family="noto_regular"  y="248"></text></g></g><g id="ZR2aPWdfKCn"><g transform="translate(720 730)"><path d="M 0,13 C 0,0 100,0 100,13 L 100,67 C 100,85 0,85 0,67 L 0,13 M 0,13 C 0,25 100,25 100,13 C 100,25 0,25 0,13" fill="white" stroke="#7e7e7e" stroke-width="2" stroke-linecap="round" stroke-linejoin="round" stroke-dasharray="0 0"/></g><g transform="translate(721.165, 767.4) rotate(0, 48.835, 9)" width="97.67" height="18"><text text-decoration="none" x="0.0024804687500008527" fill="#656565" font-size="10pt" font-family="noto_regular"  y="14">/cvmfs-dropbox</text><text text-decoration="none" x="97.66751953125001" fill="#4b4b4b" font-size="10pt" font-family="noto_regular"  y="14"></text></g></g><g id="2bDiZm4to2I"><g transform="translate(720 660)"><path d="M 0,13 C 0,0 100,0 100,13 L 100,67 C 100,85 0,85 0,67 L 0,13 M 0,13 C 0,25 100,25 100,13 C 100,25 0,25 0,13" fill="white" stroke="#7e7e7e" stroke-width="2" stroke-linecap="round" stroke-linejoin="round" stroke-dasharray="0 0"/></g><g transform="translate(736.19, 697.4) rotate(0, 33.81, 9)" width="67.62" height="18"><text text-decoration="none" x="0.0023828125000022737" fill="#656565" font-size="10pt" font-family="noto_regular"  y="14">stashcache</text><text text-decoration="none" x="67.6176171875" fill="#4b4b4b" font-size="10pt" font-family="noto_regular"  y="14"></text></g></g><g id="c0vOE0cLaBO"><g transform="translate(290 630)"><rect x="0" y="0" width="140" height="290" fill="white" stroke="#7e7e7e" stroke-width="2" stroke-linecap="round" stroke-linejoin="round" stroke-dasharray="0 0"/></g><g transform="translate(349.22, 640) rotate(0, 10.78, 135)" width="21.56" height="270"><text text-decoration="none" x="10.78" fill="#656565" font-size="10pt" font-family="noto_regular"  y="14"></text><text text-decoration="none" x="10.78" fill="#656565" font-size="10pt" font-family="noto_regular"  y="32"></text><text text-decoration="none" x="10.78" fill="#656565" font-size="10pt" font-family="noto_regular"  y="50"></text><text text-decoration="none" x="10.78" fill="#656565" font-size="10pt" font-family="noto_regular"  y="68"></text><text text-decoration="none" x="10.78" fill="#656565" font-size="10pt" font-family="noto_regular"  y="86"></text><text text-decoration="none" x="10.78" fill="#656565" font-size="10pt" font-family="noto_regular"  y="104"></text><text text-decoration="none" x="10.78" fill="#656565" font-size="10pt" font-family="noto_regular"  y="122"></text><text text-decoration="none" x="10.78" fill="#656565" font-size="10pt" font-family="noto_regular"  y="140"></text><text text-decoration="none" x="10.78" fill="#656565" font-size="10pt" font-family="noto_regular"  y="158"></text><text text-decoration="none" x="10.78" fill="#656565" font-size="10pt" font-family="noto_regular"  y="176"></text><text text-decoration="none" x="10.78" fill="#656565" font-size="10pt" font-family="noto_regular"  y="194"></text><text text-decoration="none" x="10.78" fill="#656565" font-size="10pt" font-family="noto_regular"  y="212"></text><text text-decoration="none" x="10.78" fill="#656565" font-size="10pt" font-family="noto_regular"  y="230"></text><text text-decoration="none" x="10.78" fill="#656565" font-size="10pt" font-family="noto_regular"  y="248"></text><text text-decoration="none" x="0.0016796874999993605" fill="#656565" font-size="10pt" font-family="noto_regular"  y="266">nas</text><text text-decoration="none" x="21.5583203125" fill="#4b4b4b" font-size="10pt" font-family="noto_regular"  y="266"></text></g></g><g id="ASOIDsgK7O3"><g transform="translate(559.9999999999991 240)"><rect x="0" y="0" width="140" height="290.00000000000006" fill="white" stroke="#7e7e7e" stroke-width="2" stroke-linecap="round" stroke-linejoin="round" stroke-dasharray="0 0"/></g><g transform="translate(608.429999999999, 259) rotate(0, 21.57, 126)" width="43.14" height="252"><text text-decoration="none" x="21.57" fill="#656565" font-size="10pt" font-family="noto_regular"  y="14"></text><text text-decoration="none" x="21.57" fill="#656565" font-size="10pt" font-family="noto_regular"  y="32"></text><text text-decoration="none" x="21.57" fill="#656565" font-size="10pt" font-family="noto_regular"  y="50"></text><text text-decoration="none" x="21.57" fill="#656565" font-size="10pt" font-family="noto_regular"  y="68"></text><text text-decoration="none" x="21.57" fill="#656565" font-size="10pt" font-family="noto_regular"  y="86"></text><text text-decoration="none" x="21.57" fill="#656565" font-size="10pt" font-family="noto_regular"  y="104"></text><text text-decoration="none" x="21.57" fill="#656565" font-size="10pt" font-family="noto_regular"  y="122"></text><text text-decoration="none" x="21.57" fill="#656565" font-size="10pt" font-family="noto_regular"  y="140"></text><text text-decoration="none" x="21.57" fill="#656565" font-size="10pt" font-family="noto_regular"  y="158"></text><text text-decoration="none" x="21.57" fill="#656565" font-size="10pt" font-family="noto_regular"  y="176"></text><text text-decoration="none" x="21.57" fill="#656565" font-size="10pt" font-family="noto_regular"  y="194"></text><text text-decoration="none" x="21.57" fill="#656565" font-size="10pt" font-family="noto_regular"  y="212"></text><text text-decoration="none" x="21.57" fill="#656565" font-size="10pt" font-family="noto_regular"  y="230"></text><text text-decoration="none" x="0.0006640625000002842" fill="#656565" font-size="10pt" font-family="noto_regular"  y="248">dcache</text><text text-decoration="none" x="43.1393359375" fill="#4b4b4b" font-size="10pt" font-family="noto_regular"  y="248"></text></g></g><g id="UQUcaC8WgZP"><g transform="translate(460.00000000000006 250)"><ellipse cx="40" cy="40" rx="40" ry="40" fill="white" stroke="#7e7e7e" stroke-width="2" stroke-linecap="round" stroke-linejoin="round" stroke-dasharray="0 0"/><path d="M 40,80 L 80,80" fill="white" stroke="#7e7e7e" stroke-width="2" stroke-linecap="round" stroke-linejoin="round" stroke-dasharray="0 0"/></g><g transform="translate(476.62, 281) rotate(0, 23.38, 9)" width="46.76" height="18"><text text-decoration="none" x="0.004755859374999005" fill="#656565" font-size="10pt" font-family="noto_regular"  y="14">Enstore</text><text text-decoration="none" x="46.755244140624995" fill="#4b4b4b" font-size="10pt" font-family="noto_regular"  y="14"></text></g></g><g id="gqAqBfqFix4"><g transform="translate(310.00000000000006 790.0000000000003)"><path d="M 0,13 C 0,0 100,0 100,13 L 100,67 C 100,85 0,85 0,67 L 0,13 M 0,13 C 0,25 100,25 100,13 C 100,25 0,25 0,13" fill="white" stroke="#7e7e7e" stroke-width="2" stroke-linecap="round" stroke-linejoin="round" stroke-dasharray="0 0"/></g><g transform="translate(325.08000000000004, 827.4000000000003) rotate(0, 34.92, 9)" width="69.84" height="18"><text text-decoration="none" x="0.0015429687500017053" fill="#656565" font-size="10pt" font-family="noto_regular"  y="14">/dune/data</text><text text-decoration="none" x="69.83845703125" fill="#4b4b4b" font-size="10pt" font-family="noto_regular"  y="14"></text></g></g><g id="GJTZ4Kh276r"><g transform="translate(310.00000000000006 720.0000000000001)"><path d="M 0,13 C 0,0 100,0 100,13 L 100,67 C 100,85 0,85 0,67 L 0,13 M 0,13 C 0,25 100,25 100,13 C 100,25 0,25 0,13" fill="white" stroke="#7e7e7e" stroke-width="2" stroke-linecap="round" stroke-linejoin="round" stroke-dasharray="0 0"/></g><g transform="translate(327.07000000000005, 757.4000000000001) rotate(0, 32.93, 9)" width="65.86" height="18"><text text-decoration="none" x="0.004707031249999716" fill="#656565" font-size="10pt" font-family="noto_regular"  y="14">/dune/app</text><text text-decoration="none" x="65.85529296875" fill="#4b4b4b" font-size="10pt" font-family="noto_regular"  y="14"></text></g></g><g id="eOK2wkvNMM2"><g transform="translate(310.00000000000006 650)"><path d="M 0,13 C 0,0 100,0 100,13 L 100,67 C 100,85 0,85 0,67 L 0,13 M 0,13 C 0,25 100,25 100,13 C 100,25 0,25 0,13" fill="white" stroke="#7e7e7e" stroke-width="2" stroke-linecap="round" stroke-linejoin="round" stroke-dasharray="0 0"/></g><g transform="translate(328.73500000000007, 687.4) rotate(0, 31.265, 9)" width="62.53" height="18"><text text-decoration="none" x="0.0027929687500005684" fill="#656565" font-size="10pt" font-family="noto_regular"  y="14">/nashome</text><text text-decoration="none" x="62.52720703125" fill="#4b4b4b" font-size="10pt" font-family="noto_regular"  y="14"></text></g></g><g id="u15GUYBgvvX"><g transform="translate(290 419.99999999999994)"><rect x="0" y="0" width="139.99999999999997" height="70.00000000000001" fill="white" stroke="#7e7e7e" stroke-width="2" stroke-linecap="round" stroke-linejoin="round" stroke-dasharray="0 0"/></g><g transform="translate(319.305, 445.99999999999994) rotate(0, 40.695, 9)" width="81.39" height="18"><text text-decoration="none" x="0.00017578125000028422" fill="#656565" font-size="10pt" font-family="noto_regular"  y="14">dunegpvmXX</text><text text-decoration="none" x="81.38982421875" fill="#4b4b4b" font-size="10pt" font-family="noto_regular"  y="14"></text></g></g><g id="pal286LjxXB"><g transform="translate(210.00000000000009 430)"><path d="M 0,13 C 0,0 59.99999999999894,0 59.99999999999894,13 L 59.99999999999894,36.999999999999986 C 59.99999999999894,51.999999999999986 0,51.999999999999986 0,36.999999999999986 L 0,13 M 0,13 C 0,25 59.99999999999894,25 59.99999999999894,13 C 59.99999999999894,25 0,25 0,13" fill="white" stroke="#7e7e7e" stroke-width="2" stroke-linecap="round" stroke-linejoin="round" stroke-dasharray="0 0"/></g><g transform="translate(224.78499999999954, 450) rotate(0, 15.215, 9)" width="30.43" height="18"><text text-decoration="none" x="0.002841796874999858" fill="#656565" font-size="10pt" font-family="noto_regular"  y="14">/tmp</text><text text-decoration="none" x="30.427158203125" fill="#4b4b4b" font-size="10pt" font-family="noto_regular"  y="14"></text></g></g><g id="mBSe0vriRs8"><g transform="translate(580 390)"><path d="M 0,13 C 0,0 100,0 100,13 L 100,67 C 100,85 0,85 0,67 L 0,13 M 0,13 C 0,25 100,25 100,13 C 100,25 0,25 0,13" fill="white" stroke="#7e7e7e" stroke-width="2" stroke-linecap="round" stroke-linejoin="round" stroke-dasharray="0 0"/></g><g transform="translate(606.26, 427.4) rotate(0, 23.74, 9)" width="47.48" height="18"><text text-decoration="none" x="0.002939453124998437" fill="#656565" font-size="10pt" font-family="noto_regular"  y="14">scratch&#160;</text><text text-decoration="none" x="47.477060546874995" fill="#4b4b4b" font-size="10pt" font-family="noto_regular"  y="14"></text></g></g><g id="Mt66Ow6Ltey"><g transform="translate(580 320)"><path d="M 0,13 C 0,0 100,0 100,13 L 100,67 C 100,85 0,85 0,67 L 0,13 M 0,13 C 0,25 100,25 100,13 C 100,25 0,25 0,13" fill="white" stroke="#7e7e7e" stroke-width="2" stroke-linecap="round" stroke-linejoin="round" stroke-dasharray="0 0"/></g><g transform="translate(599.37, 357.4) rotate(0, 30.63, 9)" width="61.26" height="18"><text text-decoration="none" x="0.0025585937499990052" fill="#656565" font-size="10pt" font-family="noto_regular"  y="14">persistent</text><text text-decoration="none" x="61.257441406249995" fill="#4b4b4b" font-size="10pt" font-family="noto_regular"  y="14"></text></g></g><g id="hs0XDc5PAfI"><g transform="translate(580 250)"><path d="M 0,13 C 0,0 100,0 100,13 L 100,67 C 100,85 0,85 0,67 L 0,13 M 0,13 C 0,25 100,25 100,13 C 100,25 0,25 0,13" fill="white" stroke="#7e7e7e" stroke-width="2" stroke-linecap="round" stroke-linejoin="round" stroke-dasharray="0 0"/></g><g transform="translate(591.765, 287.4) rotate(0, 38.235, 9)" width="76.47" height="18"><text text-decoration="none" x="0.0030664062499994316" fill="#656565" font-size="10pt" font-family="noto_regular"  y="14">tape_backed</text><text text-decoration="none" x="76.46693359375" fill="#4b4b4b" font-size="10pt" font-family="noto_regular"  y="14"></text></g></g><g id="sfqSj0i4Xga"><g transform="translate(880.0000000000003 450)"><rect x="0" y="0" width="150.00000000000006" height="39.99999999999931" fill="white" stroke="#7e7e7e" stroke-width="2" stroke-linecap="round" stroke-linejoin="round" stroke-dasharray="0 0"/></g><g transform="translate(925.3350000000005, 460.99999999999966) rotate(0, 29.665, 9)" width="59.33" height="18"><text text-decoration="none" x="0.0024023437499991473" fill="#656565" font-size="10pt" font-family="noto_regular"  y="14">grid&#160;</text><text text-decoration="none" x="28.09712890625" fill="#656565" font-size="10pt" font-family="noto_regular"  y="14">node</text><text text-decoration="none" x="59.32759765625" fill="#4b4b4b" font-size="10pt" font-family="noto_regular"  y="14"></text></g></g><g id="XPNlzQs6pHb"><g transform="translate(720 590)"><path d="M 0,13 C 0,0 100,0 100,13 L 100,67 C 100,85 0,85 0,67 L 0,13 M 0,13 C 0,25 100,25 100,13 C 100,25 0,25 0,13" fill="white" stroke="#7e7e7e" stroke-width="2" stroke-linecap="round" stroke-linejoin="round" stroke-dasharray="0 0"/></g><g transform="translate(749.36, 627.4) rotate(0, 20.64, 9)" width="41.28" height="18"><text text-decoration="none" x="0.0005957031250005684" fill="#656565" font-size="10pt" font-family="noto_regular"  y="14">/cvmfs</text><text text-decoration="none" x="41.279404296875" fill="#4b4b4b" font-size="10pt" font-family="noto_regular"  y="14"></text></g></g><g id="iLUihnaZ5cm"><mask id="46179" x="342" y="472" width="36" height="176" maskUnits="userSpaceOnUse"><rect x="342" y="472" width="36" height="176" fill="white" /><rect x="347.63" y="548" width="24.74" height="24" fill="black" /></mask><g mask="url(#46179)"><path d="M 360,630 L 360,490" fill="none" stroke="#7e7e7e" stroke-width="4" stroke-linecap="round" stroke-linejoin="round" stroke-dasharray="0 0"/><path d="M 360,630 L 365.75,621.304347826087 L 354.25,621.304347826087 Z" fill="rgb(126,126,126)" stroke="#7e7e7e" stroke-width="4" stroke-linecap="round" stroke-linejoin="round"/><path d="M 360,490 L 354.25,498.69565217391306 L 365.75,498.69565217391306 Z" fill="rgb(126,126,126)" stroke="#7e7e7e" stroke-width="4" stroke-linecap="round" stroke-linejoin="round"/></g><g transform="translate(350.63, 551)" width="18.74" height="18"><text text-decoration="none" x="0.0008593749999992184" fill="#656565" font-size="10pt" font-family="noto_regular"  y="14">nfs</text><text text-decoration="none" x="18.739140624999997" fill="#4b4b4b" font-size="10pt" font-family="noto_regular"  y="14"></text></g></g><g id="3YTmd4MxpL7"><g><path d="M 290,455 L 289.99999999999955,455 Q 289.9999999999991,455 280,455 Q 279.99999999999955,455 270,455" fill="none" stroke="#7e7e7e" stroke-width="2" stroke-linecap="round" stroke-linejoin="round" stroke-dasharray="0 0"/></g></g><g id="YPBLGjA8Q3f"><g><path d="M 429,600 L 429,600" fill="none" stroke="#7e7e7e" stroke-width="2" stroke-linecap="round" stroke-linejoin="round" stroke-dasharray="0 0"/></g></g><g id="seokO3nwZfn"><g><path d="M 430,597 Q 430.22199630248144,597 430,597 Q 430.22199630248144,597.0291841711482 430,597" fill="none" stroke="#7e7e7e" stroke-width="2" stroke-linecap="round" stroke-linejoin="round" stroke-dasharray="0 0"/></g></g><g id="T87Bu15pq0x"><g><path d="M 813,511 L 813,511" fill="none" stroke="#7e7e7e" stroke-width="2" stroke-linecap="round" stroke-linejoin="round" stroke-dasharray="0 0"/></g></g><g id="obGke2Hgsbo"><mask id="24aa2" x="416" y="371" width="158" height="63" maskUnits="userSpaceOnUse"><rect x="416" y="371" width="158" height="63" fill="white" /><rect x="495.15348751782324" y="385.986753360586" width="33.22" height="24" fill="black" />undefinedundefined</mask><g mask="url(#24aa2)"><path d="M 430,420 L 560,385" fill="none" stroke="#7e7e7e" stroke-width="2" stroke-linecap="round" stroke-linejoin="round" stroke-dasharray="0 0"/><path d="M 430,420 L 439.89150624207025,423.2916517119471 L 436.90181129741967,412.1870704889594 Z" fill="rgb(126,126,126)" stroke="#7e7e7e" stroke-width="2" stroke-linecap="round" stroke-linejoin="round"/><path d="M 560,385 L 550.1084937579298,381.7083482880529 L 553.0981887025803,392.8129295110406 Z" fill="rgb(126,126,126)" stroke="#7e7e7e" stroke-width="2" stroke-linecap="round" stroke-linejoin="round"/></g><g transform="translate(498.15348751782324, 388.986753360586)" width="27.22" height="18"><text text-decoration="none" x="0.0037988281249994316" fill="#656565" font-size="10pt" font-family="noto_regular"  y="14">iifdh</text><text text-decoration="none" x="27.216201171875" fill="#4b4b4b" font-size="10pt" font-family="noto_regular"  y="14"></text></g>undefinedundefined</g><g id="aa17urwAYSY"><mask id="ce421" x="412" y="472" width="306" height="261" maskUnits="userSpaceOnUse"><rect x="412" y="472" width="306" height="261" fill="white" /><rect x="544.15" y="581.495" width="41.7" height="42.01" fill="black" />undefinedundefinedundefined</mask><g mask="url(#ce421)"><path d="M 430,490 L 700,715" fill="none" stroke="#7e7e7e" stroke-width="4" stroke-linecap="round" stroke-linejoin="round" stroke-dasharray="0 0"/><path d="M 430,490 L 432.9991247419064,499.9840932243326 L 440.3612453380479,491.14954850896277 Z" fill="rgb(126,126,126)" stroke="#7e7e7e" stroke-width="4" stroke-linecap="round" stroke-linejoin="round"/></g><g transform="translate(547.15, 584.495)" width="35.7" height="36.01"><text text-decoration="none" x="0.0003906250000014211" fill="#656565" font-size="10pt" font-family="noto_regular"  y="14">cvmfs</text><text text-decoration="none" x="35.699609375" fill="#656565" font-size="10pt" font-family="noto_regular"  y="14"></text><text text-decoration="none" x="17.85" fill="#4b4b4b" font-size="10pt" font-family="noto_regular"  y="32"></text></g>undefinedundefinedundefined</g><g id="3sZ8RYIK6sa"><mask id="3b324" x="416" y="756" width="318" height="33" maskUnits="userSpaceOnUse"><rect x="416" y="756" width="318" height="33" fill="white" />undefinedundefinedundefinedundefinedundefinedundefinedundefinedundefinedundefined<rect x="626.2207213459118" y="759.2259358388636" width="45.35" height="24" fill="black" /></mask><g mask="url(#3b324)"><path d="M 430,775 L 720,770" fill="none" stroke="#3D5C83" stroke-width="2" stroke-linecap="round" stroke-linejoin="round" stroke-dasharray="3 3"/><path d="M 720,770 L 711.2065167960337,764.4007572055463 L 711.4047631944185,775.8990483118597 Z" fill="rgb(61,92,131)" stroke="#3D5C83" stroke-width="2" stroke-linecap="round" stroke-linejoin="round"/></g>undefinedundefinedundefinedundefinedundefinedundefinedundefinedundefinedundefined<g transform="translate(629.2207213459118, 762.2259358388636)" width="39.35" height="18"><text text-decoration="none" x="0.00043945312500071054" fill="#4b4b4b" font-size="10pt" font-family="noto_regular"  y="14">tarball</text><text text-decoration="none" x="39.349560546875" fill="#4b4b4b" font-size="10pt" font-family="noto_regular"  y="14"></text></g></g><g id="iV6pY4P5dgX"><g><path d="M 843,714 Q 843,714.1671371300188 843,714 Q 842.8730787004508,714.1671371300188 843,714" fill="none" stroke="#7e7e7e" stroke-width="2" stroke-linecap="round" stroke-linejoin="round" stroke-dasharray="0 0"/></g></g><g id="sVjpZPCjOB3"><mask id="aa44f" x="822" y="472" width="151" height="261" maskUnits="userSpaceOnUse"><rect x="822" y="472" width="151" height="261" fill="white" /><rect x="876.65" y="590.5" width="41.7" height="24" fill="black" />undefinedundefinedundefinedundefinedundefined</mask><g mask="url(#aa44f)"><path d="M 840,715 L 955,490" fill="none" stroke="#7e7e7e" stroke-width="4" stroke-linecap="round" stroke-linejoin="round" stroke-dasharray="0 0"/><path d="M 955,490 L 945.9225131009455,495.12602168617855 L 956.1625119462004,500.3597988737533 Z" fill="rgb(126,126,126)" stroke="#7e7e7e" stroke-width="4" stroke-linecap="round" stroke-linejoin="round"/></g><g transform="translate(879.65, 593.5)" width="35.7" height="18"><text text-decoration="none" x="0.0003906250000014211" fill="#656565" font-size="10pt" font-family="noto_regular"  y="14">cvmfs</text><text text-decoration="none" x="35.699609375" fill="#4b4b4b" font-size="10pt" font-family="noto_regular"  y="14"></text></g>undefinedundefinedundefinedundefinedundefined</g><g id="1fYDWOEvtOU"><mask id="fe288" x="686" y="456" width="208" height="29" maskUnits="userSpaceOnUse"><rect x="686" y="456" width="208" height="29" fill="white" /><rect x="770.665" y="458.5" width="38.67" height="24" fill="black" /></mask><g mask="url(#fe288)"><path d="M 700,471 L 880,470" fill="none" stroke="#7e7e7e" stroke-width="2" stroke-linecap="round" stroke-linejoin="round" stroke-dasharray="0 0"/><path d="M 880,470 L 871.2567856909656,464.3225824289582 L 871.3525124945971,475.8221840037549 Z" fill="rgb(126,126,126)" stroke="#7e7e7e" stroke-width="2" stroke-linecap="round" stroke-linejoin="round"/></g><g transform="translate(773.665, 461.5)" width="32.67" height="18"><text text-decoration="none" x="0.0024804687500008527" fill="#656565" font-size="10pt" font-family="noto_regular"  y="14">xroot</text><text text-decoration="none" x="32.66751953125" fill="#4b4b4b" font-size="10pt" font-family="noto_regular"  y="14"></text></g></g><g id="iEb4KbL0I0E"><g><path d="M 580,290 L 540,290" fill="none" stroke="#7e7e7e" stroke-width="2" stroke-linecap="round" stroke-linejoin="round" stroke-dasharray="0 0"/><path d="M 580,290 L 571.304347826087,284.25 L 571.304347826087,295.75 Z" fill="rgb(126,126,126)" stroke="#7e7e7e" stroke-width="2" stroke-linecap="round" stroke-linejoin="round"/><path d="M 540,290 L 548.695652173913,295.75 L 548.695652173913,284.25 Z" fill="rgb(126,126,126)" stroke="#7e7e7e" stroke-width="2" stroke-linecap="round" stroke-linejoin="round"/></g></g><g id="urVVHXAl7Eh"><g transform="translate(930 300)"><path d="M 0,13 C 0,0 100,0 100,13 L 100,67 C 100,85 0,85 0,67 L 0,13 M 0,13 C 0,25 100,25 100,13 C 100,25 0,25 0,13" fill="white" stroke="#7e7e7e" stroke-width="2" stroke-linecap="round" stroke-linejoin="round" stroke-dasharray="0 0"/></g><g transform="translate(948, 328.395) rotate(0, 32, 18.005)" width="64" height="36.01"><text text-decoration="none" x="8.269287109375" fill="#656565" font-size="10pt" font-family="noto_regular"  y="14">Remote&#160;</text><text text-decoration="none" x="0.00146484375" fill="#656565" font-size="10pt" font-family="noto_regular"  y="32">DUNE&#160;</text><text text-decoration="none" x="39.4775390625" fill="#656565" font-size="10pt" font-family="noto_regular"  y="32">disk</text><text text-decoration="none" x="63.99853515625" fill="#4b4b4b" font-size="10pt" font-family="noto_regular"  y="32"></text></g></g><g id="RQijWZQxbh3"><mask id="d0dc7" x="941" y="366" width="53" height="98" maskUnits="userSpaceOnUse"><rect x="941" y="366" width="53" height="98" fill="white" /><rect x="948.165" y="393.995" width="38.67" height="42.01" fill="black" />undefined</mask><g mask="url(#d0dc7)"><path d="M 980,380 L 955,450" fill="none" stroke="#7e7e7e" stroke-width="2" stroke-linecap="round" stroke-linejoin="round" stroke-dasharray="0 0"/><path d="M 955,450 L 963.3396803133934,443.74487418191467 L 952.5096483300528,439.87700561643595 Z" fill="rgb(126,126,126)" stroke="#7e7e7e" stroke-width="2" stroke-linecap="round" stroke-linejoin="round"/></g><g transform="translate(951.165, 396.995)" width="32.67" height="36.01"><text text-decoration="none" x="4.404580078125001" fill="#656565" font-size="10pt" font-family="noto_regular"  y="14">ifdh</text><text text-decoration="none" x="28.265419921875" fill="#656565" font-size="10pt" font-family="noto_regular"  y="14"></text><text text-decoration="none" x="0.0024804687500008527" fill="#656565" font-size="10pt" font-family="noto_regular"  y="32">xroot</text><text text-decoration="none" x="32.66751953125" fill="#4b4b4b" font-size="10pt" font-family="noto_regular"  y="32"></text></g>undefined</g><g id="bX7bQun8Jzz"><mask id="22468" x="690" y="326" width="254" height="69" maskUnits="userSpaceOnUse"><rect x="690" y="326" width="254" height="69" fill="white" /><rect x="797.21" y="348.5" width="39.58" height="24" fill="black" /></mask><g mask="url(#22468)"><path d="M 704,381 L 930,340" fill="none" stroke="#3D5C83" stroke-width="2" stroke-linecap="round" stroke-linejoin="round" stroke-dasharray="3 3"/><path d="M 704,381 L 713.5823838202319,385.1054582023735 L 711.5296073960607,373.7901540106 Z" fill="rgb(61,92,131)" stroke="#3D5C83" stroke-width="2" stroke-linecap="round" stroke-linejoin="round"/><path d="M 930,340 L 920.4176161797681,335.8945417976265 L 922.4703926039393,347.2098459894 Z" fill="rgb(61,92,131)" stroke="#3D5C83" stroke-width="2" stroke-linecap="round" stroke-linejoin="round"/></g><g transform="translate(800.21, 351.5)" width="33.58" height="18"><text text-decoration="none" x="0.00044921874999914735" fill="#4b4b4b" font-size="10pt" font-family="noto_regular"  y="14">Rucio</text><text text-decoration="none" x="33.57955078125" fill="#4b4b4b" font-size="10pt" font-family="noto_regular"  y="14"></text></g></g><g id="2wXMUdtEp3z"><mask id="d01a4" x="416" y="432" width="159" height="37" maskUnits="userSpaceOnUse"><rect x="416" y="432" width="159" height="37" fill="white" /><rect x="476.165" y="438.5" width="38.67" height="24" fill="black" />undefinedundefinedundefinedundefinedundefined</mask><g mask="url(#d01a4)"><path d="M 561,446 L 430,455" fill="none" stroke="#7e7e7e" stroke-width="2" stroke-linecap="round" stroke-linejoin="round" stroke-dasharray="0 0"/><path d="M 430,455 L 439.06931194137115,460.14047153866073 L 438.28109361271646,448.66751586602027 Z" fill="rgb(126,126,126)" stroke="#7e7e7e" stroke-width="2" stroke-linecap="round" stroke-linejoin="round"/></g><g transform="translate(479.165, 441.5)" width="32.67" height="18"><text text-decoration="none" x="0.0024804687500008527" fill="#656565" font-size="10pt" font-family="noto_regular"  y="14">xroot</text><text text-decoration="none" x="32.66751953125" fill="#4b4b4b" font-size="10pt" font-family="noto_regular"  y="14"></text></g>undefinedundefinedundefinedundefinedundefined</g><g id="2ze4NubOBAI"><mask id="35255" x="686" y="436" width="208" height="29" maskUnits="userSpaceOnUse"><rect x="686" y="436" width="208" height="29" fill="white" /><rect x="775.065" y="438.5" width="29.87" height="24" fill="black" /></mask><g mask="url(#35255)"><path d="M 880,450 L 700,451" fill="none" stroke="#7e7e7e" stroke-width="2" stroke-linecap="round" stroke-linejoin="round" stroke-dasharray="0 0"/><path d="M 880,450 L 871.2578048647538,444.321013211236 L 871.3514676169849,455.8206317826863 Z" fill="rgb(126,126,126)" stroke="#7e7e7e" stroke-width="2" stroke-linecap="round" stroke-linejoin="round"/><path d="M 700,451 L 708.7421951352462,456.678986788764 L 708.6485323830151,445.1793682173137 Z" fill="rgb(126,126,126)" stroke="#7e7e7e" stroke-width="2" stroke-linecap="round" stroke-linejoin="round"/></g><g transform="translate(778.065, 441.5)" width="23.87" height="18"><text text-decoration="none" x="0.004580078125000497" fill="#656565" font-size="10pt" font-family="noto_regular"  y="14">ifdh</text><text text-decoration="none" x="23.865419921875002" fill="#4b4b4b" font-size="10pt" font-family="noto_regular"  y="14"></text></g></g></svg>